{
  "asset": {
    "generator": "glTF-Transform v4.3.0",
    "version": "2.0"
  },
  "accessors": [
    {
      "type": "SCALAR",
      "componentType": 5123,
      "count": 2436,
      "normalized": false,
      "byteOffset": 0,
      "bufferView": 0
    },
    {
      "type": "VEC3",
      "componentType": 5120,
      "count": 755,
      "normalized": true,
      "byteOffset": 0,
      "bufferView": 1
    },
    {
      "type": "VEC3",
      "componentType": 5122,
      "count": 755,
      "max": [
        18430,
        32767,
        18430
      ],
      "min": [
        -18430,
        -32767,
        -18430
      ],
      "normalized": true,
      "byteOffset": 0,
      "bufferView": 2
    },
    {
      "type": "VEC2",
      "componentType": 5123,
      "count": 755,
      "normalized": true,
      "byteOffset": 0,
      "bufferView": 3
    }
  ],
  "bufferViews": [
    {
      "buffer": 1,
      "byteOffset": 0,
      "byteLength": 4872,
      "target": 34963,
      "extensions": {
        "EXT_meshopt_compression": {
          "buffer": 0,
          "byteOffset": 0,
          "byteLength": 877,
          "mode": "TRIANGLES",
          "byteStride": 2,
          "count": 2436
        }
      }
    },
    {
      "buffer": 1,
      "byteOffset": 4872,
      "byteLength": 3020,
      "target": 34962,
      "byteStride": 4,
      "extensions": {
        "EXT_meshopt_compression": {
          "buffer": 0,
          "byteOffset": 880,
          "byteLength": 1434,
          "mode": "ATTRIBUTES",
          "filter": "OCTAHEDRAL",
          "byteStride": 4,
          "count": 755
        }
      }
    },
    {
      "buffer": 1,
      "byteOffset": 7892,
      "byteLength": 6040,
      "target": 34962,
      "byteStride": 8,
      "extensions": {
        "EXT_meshopt_compression": {
          "buffer": 0,
          "byteOffset": 2316,
          "byteLength": 4106,
          "mode": "ATTRIBUTES",
          "byteStride": 8,
          "count": 755
        }
      }
    },
    {
      "buffer": 1,
      "byteOffset": 13932,
      "byteLength": 3020,
      "target": 34962,
      "byteStride": 4,
      "extensions": {
        "EXT_meshopt_compression": {
          "buffer": 0,
          "byteOffset": 6424,
          "byteLength": 2461,
          "mode": "ATTRIBUTES",
          "byteStride": 4,
          "count": 755
        }
      }
    }
  ],
  "samplers": [
    {
      "magFilter": 9729,
      "minFilter": 9987,
      "wrapS": 10497,
      "wrapT": 10497
    }
  ],
  "textures": [
    {
      "sampler": 0,
      "extensions": {
        "KHR_texture_basisu": {
          "source": 0
        }
      }
    }
  ],
  "images": [
    {
      "name": "forest_texture",
      "mimeType": "image/ktx2",
      "uri": "forest_texture.ktx2"
    }
  ],
  "buffers": [
    {
      "uri": "Hill_4x4x8_Color1.bin",
      "byteLength": 8888
    },
    {
      "byteLength": 16952,
      "extensions": {
        "EXT_meshopt_compression": {
          "fallback": true
        }
      }
    }
  ],
  "materials": [
    {
      "name": "forest",
      "pbrMetallicRoughness": {
        "roughnessFactor": 0.6000000238418579,
        "metallicFactor": 0,
        "baseColorTexture": {
          "index": 0
        }
      }
    }
  ],
  "meshes": [
    {
      "name": "Hill_4x4x8_Color1",
      "primitives": [
        {
          "attributes": {
            "NORMAL": 1,
            "POSITION": 2,
            "TEXCOORD_0": 3
          },
          "mode": 4,
          "material": 0,
          "indices": 0
        }
      ]
    }
  ],
  "nodes": [
    {
      "name": "Hill_4x4x8_Color1",
      "translation": [
        0,
        4,
        1.1920928955078125e-7
      ],
      "scale": [
        4,
        4,
        4
      ],
      "mesh": 0
    }
  ],
  "scenes": [
    {
      "name": "Scene",
      "nodes": [
        0
      ]
    }
  ],
  "scene": 0,
  "extensionsUsed": [
    "EXT_meshopt_compression",
    "KHR_mesh_quantization",
    "KHR_texture_basisu"
  ],
  "extensionsRequired": [
    "EXT_meshopt_compression",
    "KHR_mesh_quantization",
    "KHR_texture_basisu"
  ]
}