{
  "asset": {
    "generator": "glTF-Transform v4.3.0",
    "version": "2.0"
  },
  "accessors": [
    {
      "type": "SCALAR",
      "componentType": 5123,
      "count": 1008,
      "normalized": false,
      "byteOffset": 0,
      "bufferView": 0
    },
    {
      "type": "VEC3",
      "componentType": 5120,
      "count": 325,
      "normalized": true,
      "byteOffset": 0,
      "bufferView": 1
    },
    {
      "type": "VEC3",
      "componentType": 5122,
      "count": 325,
      "max": [
        32767,
        26539,
        32767
      ],
      "min": [
        -32767,
        -26539,
        -32767
      ],
      "normalized": true,
      "byteOffset": 0,
      "bufferView": 2
    },
    {
      "type": "VEC2",
      "componentType": 5123,
      "count": 325,
      "normalized": true,
      "byteOffset": 0,
      "bufferView": 3
    }
  ],
  "bufferViews": [
    {
      "buffer": 1,
      "byteOffset": 0,
      "byteLength": 2016,
      "target": 34963,
      "extensions": {
        "EXT_meshopt_compression": {
          "buffer": 0,
          "byteOffset": 0,
          "byteLength": 383,
          "mode": "TRIANGLES",
          "byteStride": 2,
          "count": 1008
        }
      }
    },
    {
      "buffer": 1,
      "byteOffset": 2016,
      "byteLength": 1300,
      "target": 34962,
      "byteStride": 4,
      "extensions": {
        "EXT_meshopt_compression": {
          "buffer": 0,
          "byteOffset": 384,
          "byteLength": 694,
          "mode": "ATTRIBUTES",
          "filter": "OCTAHEDRAL",
          "byteStride": 4,
          "count": 325
        }
      }
    },
    {
      "buffer": 1,
      "byteOffset": 3316,
      "byteLength": 2600,
      "target": 34962,
      "byteStride": 8,
      "extensions": {
        "EXT_meshopt_compression": {
          "buffer": 0,
          "byteOffset": 1080,
          "byteLength": 1974,
          "mode": "ATTRIBUTES",
          "byteStride": 8,
          "count": 325
        }
      }
    },
    {
      "buffer": 1,
      "byteOffset": 5916,
      "byteLength": 1300,
      "target": 34962,
      "byteStride": 4,
      "extensions": {
        "EXT_meshopt_compression": {
          "buffer": 0,
          "byteOffset": 3056,
          "byteLength": 1092,
          "mode": "ATTRIBUTES",
          "byteStride": 4,
          "count": 325
        }
      }
    }
  ],
  "samplers": [
    {
      "magFilter": 9729,
      "minFilter": 9987,
      "wrapS": 10497,
      "wrapT": 10497
    }
  ],
  "textures": [
    {
      "sampler": 0,
      "extensions": {
        "KHR_texture_basisu": {
          "source": 0
        }
      }
    }
  ],
  "images": [
    {
      "name": "forest_texture",
      "mimeType": "image/ktx2",
      "uri": "forest_texture.ktx2"
    }
  ],
  "buffers": [
    {
      "uri": "Hill_2x2x2_Color1.bin",
      "byteLength": 4148
    },
    {
      "byteLength": 7216,
      "extensions": {
        "EXT_meshopt_compression": {
          "fallback": true
        }
      }
    }
  ],
  "materials": [
    {
      "name": "forest",
      "pbrMetallicRoughness": {
        "roughnessFactor": 0.6000000238418579,
        "metallicFactor": 0,
        "baseColorTexture": {
          "index": 0
        }
      }
    }
  ],
  "meshes": [
    {
      "name": "Hill_2x2x2_Color1",
      "primitives": [
        {
          "attributes": {
            "NORMAL": 1,
            "POSITION": 2,
            "TEXCOORD_0": 3
          },
          "mode": 4,
          "material": 0,
          "indices": 0
        }
      ]
    }
  ],
  "nodes": [
    {
      "name": "Hill_2x2x2_Color1",
      "translation": [
        0,
        1,
        0
      ],
      "scale": [
        1.2347099781036377,
        1.2347099781036377,
        1.2347099781036377
      ],
      "mesh": 0
    }
  ],
  "scenes": [
    {
      "name": "Scene",
      "nodes": [
        0
      ]
    }
  ],
  "scene": 0,
  "extensionsUsed": [
    "EXT_meshopt_compression",
    "KHR_mesh_quantization",
    "KHR_texture_basisu"
  ],
  "extensionsRequired": [
    "EXT_meshopt_compression",
    "KHR_mesh_quantization",
    "KHR_texture_basisu"
  ]
}