{
  "asset": {
    "generator": "glTF-Transform v4.3.0",
    "version": "2.0"
  },
  "accessors": [
    {
      "type": "SCALAR",
      "componentType": 5123,
      "count": 141,
      "normalized": false,
      "byteOffset": 0,
      "bufferView": 0
    },
    {
      "type": "VEC3",
      "componentType": 5120,
      "count": 55,
      "normalized": true,
      "byteOffset": 0,
      "bufferView": 1
    },
    {
      "type": "VEC3",
      "componentType": 5122,
      "count": 55,
      "max": [
        32767,
        26215,
        32767
      ],
      "min": [
        -32767,
        -26215,
        -32767
      ],
      "normalized": true,
      "byteOffset": 0,
      "bufferView": 2
    },
    {
      "type": "VEC2",
      "componentType": 5123,
      "count": 55,
      "normalized": true,
      "byteOffset": 0,
      "bufferView": 3
    }
  ],
  "bufferViews": [
    {
      "buffer": 1,
      "byteOffset": 0,
      "byteLength": 282,
      "target": 34963,
      "extensions": {
        "EXT_meshopt_compression": {
          "buffer": 0,
          "byteOffset": 0,
          "byteLength": 66,
          "mode": "TRIANGLES",
          "byteStride": 2,
          "count": 141
        }
      }
    },
    {
      "buffer": 1,
      "byteOffset": 284,
      "byteLength": 220,
      "target": 34962,
      "byteStride": 4,
      "extensions": {
        "EXT_meshopt_compression": {
          "buffer": 0,
          "byteOffset": 68,
          "byteLength": 129,
          "mode": "ATTRIBUTES",
          "filter": "OCTAHEDRAL",
          "byteStride": 4,
          "count": 55
        }
      }
    },
    {
      "buffer": 1,
      "byteOffset": 504,
      "byteLength": 440,
      "target": 34962,
      "byteStride": 8,
      "extensions": {
        "EXT_meshopt_compression": {
          "buffer": 0,
          "byteOffset": 200,
          "byteLength": 371,
          "mode": "ATTRIBUTES",
          "byteStride": 8,
          "count": 55
        }
      }
    },
    {
      "buffer": 1,
      "byteOffset": 944,
      "byteLength": 220,
      "target": 34962,
      "byteStride": 4,
      "extensions": {
        "EXT_meshopt_compression": {
          "buffer": 0,
          "byteOffset": 572,
          "byteLength": 204,
          "mode": "ATTRIBUTES",
          "byteStride": 4,
          "count": 55
        }
      }
    }
  ],
  "samplers": [
    {
      "magFilter": 9729,
      "minFilter": 9987,
      "wrapS": 10497,
      "wrapT": 10497
    }
  ],
  "textures": [
    {
      "sampler": 0,
      "extensions": {
        "KHR_texture_basisu": {
          "source": 0
        }
      }
    }
  ],
  "images": [
    {
      "name": "forest_texture",
      "mimeType": "image/ktx2",
      "uri": "forest_texture.ktx2"
    }
  ],
  "buffers": [
    {
      "uri": "Hill_Cliff_I_OuterCorner_Color1.bin",
      "byteLength": 776
    },
    {
      "byteLength": 1164,
      "extensions": {
        "EXT_meshopt_compression": {
          "fallback": true
        }
      }
    }
  ],
  "materials": [
    {
      "name": "forest",
      "pbrMetallicRoughness": {
        "roughnessFactor": 0.6000000238418579,
        "metallicFactor": 0,
        "baseColorTexture": {
          "index": 0
        }
      }
    }
  ],
  "meshes": [
    {
      "name": "Hill_Cliff_I_OuterCorner_Color1",
      "primitives": [
        {
          "attributes": {
            "NORMAL": 1,
            "POSITION": 2,
            "TEXCOORD_0": 3
          },
          "mode": 4,
          "material": 0,
          "indices": 0
        }
      ]
    }
  ],
  "nodes": [
    {
      "name": "Hill_Cliff_I_OuterCorner_Color1",
      "translation": [
        -0.25,
        0.6999999284744263,
        -0.25
      ],
      "scale": [
        1.25,
        1.25,
        1.25
      ],
      "mesh": 0
    }
  ],
  "scenes": [
    {
      "name": "Scene",
      "nodes": [
        0
      ]
    }
  ],
  "scene": 0,
  "extensionsUsed": [
    "EXT_meshopt_compression",
    "KHR_mesh_quantization",
    "KHR_texture_basisu"
  ],
  "extensionsRequired": [
    "EXT_meshopt_compression",
    "KHR_mesh_quantization",
    "KHR_texture_basisu"
  ]
}